<svg version="1.1" id="Layer_1" xmlns="http://www.w3.org/2000/svg" xmlns:xlink="http://www.w3.org/1999/xlink" x="0px" y="0px"
	 width="100%" viewBox="0 0 512 512" enable-background="new 0 0 512 512" xml:space="preserve">
<path fill="#000000" opacity="1.000000" stroke="none" 
	d="
M270.000000,513.000000 
	C180.021835,513.000000 90.543671,513.000000 1.032752,513.000000 
	C1.032752,342.396820 1.032752,171.793610 1.032752,1.095206 
	C171.561523,1.095206 342.123108,1.095206 512.842346,1.095206 
	C512.842346,171.666550 512.842346,342.333252 512.842346,513.000000 
	C432.126923,513.000000 351.313446,513.000000 270.000000,513.000000 
M35.537392,235.944443 
	C40.906998,239.479416 46.220398,243.104370 51.671001,246.509705 
	C54.221268,248.102982 56.504234,247.285858 58.854538,245.362701 
	C69.424538,236.713638 80.060493,228.138901 90.880318,219.807022 
	C92.914291,218.240738 95.891632,217.128159 98.439590,217.116592 
	C135.764603,216.947067 173.090637,217.000000 210.416428,216.999985 
	C212.227432,216.999985 214.038437,217.000000 216.303177,217.000000 
	C216.552658,213.508163 216.968185,210.379471 216.970963,207.250412 
	C217.012589,160.426590 217.027603,113.602692 216.988358,66.778854 
	C216.967728,42.157757 199.795380,25.033051 175.141281,25.009260 
	C138.981979,24.974367 102.822548,24.969292 66.663246,25.011152 
	C42.288540,25.039370 25.038933,42.188984 25.014332,66.467285 
	C24.966713,113.457741 25.041065,160.448334 24.969280,207.438721 
	C24.953064,218.052841 28.102543,227.387344 35.537392,235.944443 
M270.500000,488.999420 
	C279.261688,488.999420 288.023346,488.999420 296.687927,488.999420 
	C296.687927,440.663422 296.687927,392.939514 296.687927,345.306335 
	C211.326706,345.306335 126.277298,345.306335 41.312088,345.306335 
	C41.312088,393.336578 41.312088,441.060486 41.312088,488.999420 
	C117.582222,488.999420 193.541107,488.999420 270.500000,488.999420 
M281.072723,299.158417 
	C280.513763,290.132843 284.077667,283.057831 291.027832,277.406189 
	C307.955658,263.640961 324.798157,249.770905 341.705109,235.979950 
	C342.639465,235.217789 343.847198,234.790756 344.927704,234.207718 
	C343.522736,233.099960 343.193939,233.013702 342.865173,233.013657 
	C262.892853,233.005203 182.920532,232.987686 102.948341,233.089905 
	C101.010742,233.092392 98.731400,233.995560 97.190903,235.212296 
	C80.462051,248.425354 63.847130,261.782715 47.207230,275.108307 
	C45.072121,276.818146 42.971600,278.571228 39.836227,281.138489 
	C115.693649,281.138489 190.213257,281.138489 264.653839,281.138489 
	C264.653839,286.688324 264.653839,291.751099 264.653839,297.254364 
	C184.599213,297.254364 104.890022,297.254364 25.388391,297.254364 
	C25.388391,308.107849 25.388391,318.503387 25.388391,328.787018 
	C116.034813,328.787018 206.292816,328.787018 297.077332,328.787018 
	C295.885681,325.204437 299.557343,320.841980 294.789185,318.483032 
	C286.977570,314.618286 282.590454,308.463501 281.072723,299.158417 
M329.000641,423.500061 
	C329.015045,417.667755 328.882294,411.830750 329.068268,406.003937 
	C330.102234,373.610657 357.958527,345.932098 390.338562,345.039642 
	C427.425934,344.017456 456.873383,372.533875 456.984863,409.679932 
	C457.058899,434.342590 456.999176,459.005646 456.999329,483.668518 
	C456.999359,485.414795 456.999359,487.161041 456.999359,488.791565 
	C462.686249,488.791565 467.637329,488.791565 472.384583,488.791565 
	C472.692108,488.461975 472.903046,488.341522 472.903137,488.220947 
	C472.944946,432.897125 472.980988,377.573334 472.937164,322.249573 
	C472.936310,321.165131 472.284790,319.713837 471.447754,319.054077 
	C462.835754,312.265259 453.993683,305.764374 445.464813,298.874878 
	C427.992279,284.760712 410.672699,270.457184 393.068970,256.050629 
	C366.514008,277.690430 340.127625,299.192810 313.272461,321.077240 
	C313.272461,376.197571 313.272461,432.453644 313.272461,488.708679 
	C318.618469,488.708679 323.685272,488.708679 329.000641,488.708679 
	C329.000641,467.111816 329.000641,445.805908 329.000641,423.500061 
M305.500000,112.998741 
	C281.421509,112.998741 257.343018,112.998741 233.336823,112.998741 
	C233.336823,118.680641 233.336823,123.739395 233.336823,128.732285 
	C233.991821,128.856201 234.309906,128.968857 234.628067,128.969086 
	C257.276794,128.985565 279.925537,128.980453 302.574188,129.020538 
	C304.894531,129.024643 307.269135,129.027054 309.525238,129.487518 
	C320.730621,131.774567 326.990967,139.291382 329.505127,153.616516 
	C331.096497,151.318298 332.870911,149.478317 333.803802,147.281067 
	C337.485352,138.609589 343.769043,135.532867 353.021820,136.828384 
	C356.126404,137.263077 358.111786,137.912689 359.799896,140.602814 
	C363.919678,147.167969 368.344727,153.541565 373.005035,160.529251 
	C376.316895,155.564285 379.801697,151.443451 382.045319,146.731628 
	C385.925873,138.582062 391.719635,135.587921 400.622742,136.813583 
	C404.093842,137.291443 406.255310,138.064682 408.120850,141.108688 
	C412.075287,147.561035 416.480164,153.737320 421.014465,160.494965 
	C425.836121,153.290924 430.223846,146.663391 434.708466,140.102081 
	C435.500275,138.943573 436.648071,137.253876 437.714478,137.189774 
	C442.690002,136.890717 447.921448,136.211304 452.597076,137.437790 
	C455.085266,138.090469 456.720581,142.279526 458.579895,144.983047 
	C462.088226,150.084274 465.480255,155.265503 469.177765,160.798279 
	C475.503174,152.339508 481.252563,144.651047 486.973816,137.000168 
	C481.708435,129.951935 476.602386,123.376991 471.812897,116.579033 
	C469.870331,113.821899 467.708130,112.919205 464.376282,112.925774 
	C411.751007,113.029648 359.125488,112.998741 305.500000,112.998741 
M361.001099,407.504456 
	C361.001099,402.739624 361.001099,397.974792 361.001099,393.299561 
	C382.656067,393.299561 403.720886,393.299561 425.187866,393.299561 
	C425.187866,425.327118 425.187866,457.058075 425.187866,488.695068 
	C430.669403,488.695068 435.738281,488.695068 440.907898,488.695068 
	C440.907898,460.918152 441.411713,433.434937 440.755920,405.979401 
	C440.183594,382.018127 419.401062,362.059509 395.482208,361.073608 
	C367.803650,359.932709 345.243622,381.220703 345.041718,409.000763 
	C344.854034,434.823547 344.998352,460.648743 345.011169,486.472900 
	C345.011536,487.247864 345.175659,488.022797 345.253021,488.705688 
	C350.646454,488.705688 355.715881,488.705688 361.001099,488.705688 
	C361.001099,461.775055 361.001099,435.139252 361.001099,407.504456 
M387.114716,219.445770 
	C369.325531,234.008041 351.537231,248.571350 333.746887,263.132233 
	C322.789093,272.100891 311.674133,280.888763 300.999084,290.182068 
	C298.867676,292.037598 297.260284,295.936340 297.545197,298.670563 
	C297.773468,300.861328 301.014954,303.978088 303.323273,304.383514 
	C305.932373,304.841766 309.551788,303.422699 311.771515,301.630554 
	C337.305176,281.015503 362.724396,260.256409 387.980988,239.302887 
	C391.683594,236.231064 393.889984,235.842758 397.825958,239.116745 
	C423.312103,260.316437 449.044128,281.220825 474.727936,302.182312 
	C479.304260,305.917206 484.008942,305.773682 487.123627,302.041321 
	C490.264313,298.277740 489.534058,293.645569 484.939941,289.879120 
	C456.339874,266.431580 427.697876,243.035187 399.081299,219.607819 
	C395.412262,216.604095 391.673553,216.028946 387.114716,219.445770 
M387.525787,488.999268 
	C394.617920,488.999268 401.710083,488.999268 408.604980,488.999268 
	C408.604980,461.907013 408.604980,435.515198 408.604980,409.263916 
	C397.934326,409.263916 387.659424,409.263916 377.308777,409.263916 
	C377.308777,435.918854 377.308777,462.309479 377.308777,488.999268 
	C380.588470,488.999268 383.563141,488.999268 387.525787,488.999268 
M312.997528,153.854355 
	C312.213501,147.360535 309.766327,145.026001 303.380219,145.015335 
	C280.913574,144.977814 258.446838,144.996689 235.980148,145.018356 
	C235.047363,145.019257 234.114792,145.263092 233.384247,145.365448 
	C233.384247,150.756897 233.384247,155.815674 233.384247,160.617798 
	C260.136749,160.617798 286.503784,160.617798 312.999725,160.617798 
	C312.999725,158.407959 312.999725,156.579590 312.997528,153.854355 
z"/>
<path fill="#A0D468" opacity="1.000000" stroke="none" 
	d="
M35.299011,235.680939 
	C28.102543,227.387344 24.953064,218.052841 24.969280,207.438721 
	C25.041065,160.448334 24.966713,113.457741 25.014332,66.467285 
	C25.038933,42.188984 42.288540,25.039370 66.663246,25.011152 
	C102.822548,24.969292 138.981979,24.974367 175.141281,25.009260 
	C199.795380,25.033051 216.967728,42.157757 216.988358,66.778854 
	C217.027603,113.602692 217.012589,160.426590 216.970963,207.250412 
	C216.968185,210.379471 216.552658,213.508163 216.303177,217.000000 
	C214.038437,217.000000 212.227432,216.999985 210.416428,216.999985 
	C173.090637,217.000000 135.764603,216.947067 98.439590,217.116592 
	C95.891632,217.128159 92.914291,218.240738 90.880318,219.807022 
	C80.060493,228.138901 69.424538,236.713638 58.854538,245.362701 
	C56.504234,247.285858 54.221268,248.102982 51.671001,246.509705 
	C46.220398,243.104370 40.906998,239.479416 35.299011,235.680939 
M56.999805,163.498993 
	C57.000957,167.996170 56.932816,172.494644 57.016281,176.990295 
	C57.264755,190.373505 67.454605,200.683075 80.773254,200.975769 
	C86.267128,201.096512 91.768219,201.098358 97.261963,200.974258 
	C110.360062,200.678406 120.845512,190.493073 120.934006,177.447235 
	C121.117043,150.465500 121.121559,123.480690 120.930328,96.499046 
	C120.837868,83.452744 110.329979,73.308296 97.221199,73.019974 
	C92.559692,72.917450 87.894066,72.993019 83.230347,73.001480 
	C66.917816,73.031067 57.022701,82.834518 57.005501,99.039223 
	C56.983051,120.192589 56.999878,141.345993 56.999805,163.498993 
z"/>
<path fill="#CCD1D9" opacity="1.000000" stroke="none" 
	d="
M270.000000,488.999420 
	C193.541107,488.999420 117.582222,488.999420 41.312088,488.999420 
	C41.312088,441.060486 41.312088,393.336578 41.312088,345.306335 
	C126.277298,345.306335 211.326706,345.306335 296.687927,345.306335 
	C296.687927,392.939514 296.687927,440.663422 296.687927,488.999420 
	C288.023346,488.999420 279.261688,488.999420 270.000000,488.999420 
M153.000000,425.500000 
	C153.000000,409.412628 153.000000,393.325287 153.000000,377.295258 
	C120.685539,377.295258 88.966225,377.295258 57.297035,377.295258 
	C57.297035,403.980103 57.297035,430.368591 57.297035,456.704834 
	C89.314270,456.704834 121.033577,456.704834 153.000000,456.704834 
	C153.000000,446.441132 153.000000,436.470581 153.000000,425.500000 
M281.000000,422.500000 
	C281.000000,407.412018 281.000000,392.324036 281.000000,377.295959 
	C248.684113,377.295959 216.964813,377.295959 185.297699,377.295959 
	C185.297699,403.981476 185.297699,430.369995 185.297699,456.704163 
	C217.315628,456.704163 249.034958,456.704163 281.000000,456.704163 
	C281.000000,445.439850 281.000000,434.469940 281.000000,422.500000 
z"/>
<path fill="#FF826E" opacity="1.000000" stroke="none" 
	d="
M281.110107,299.586487 
	C282.590454,308.463501 286.977570,314.618286 294.789185,318.483032 
	C299.557343,320.841980 295.885681,325.204437 297.077332,328.787018 
	C206.292816,328.787018 116.034813,328.787018 25.388391,328.787018 
	C25.388391,318.503387 25.388391,308.107849 25.388391,297.254364 
	C104.890022,297.254364 184.599213,297.254364 264.653839,297.254364 
	C264.653839,291.751099 264.653839,286.688324 264.653839,281.138489 
	C190.213257,281.138489 115.693649,281.138489 39.836227,281.138489 
	C42.971600,278.571228 45.072121,276.818146 47.207230,275.108307 
	C63.847130,261.782715 80.462051,248.425354 97.190903,235.212296 
	C98.731400,233.995560 101.010742,233.092392 102.948341,233.089905 
	C182.920532,232.987686 262.892853,233.005203 342.865173,233.013657 
	C343.193939,233.013702 343.522736,233.099960 344.927704,234.207718 
	C343.847198,234.790756 342.639465,235.217789 341.705109,235.979950 
	C324.798157,249.770905 307.955658,263.640961 291.027832,277.406189 
	C284.077667,283.057831 280.513763,290.132843 281.110107,299.586487 
z"/>
<path fill="#CBD0D8" opacity="1.000000" stroke="none" 
	d="
M329.000641,424.000061 
	C329.000641,445.805908 329.000641,467.111816 329.000641,488.708679 
	C323.685272,488.708679 318.618469,488.708679 313.272461,488.708679 
	C313.272461,432.453644 313.272461,376.197571 313.272461,321.077240 
	C340.127625,299.192810 366.514008,277.690430 393.068970,256.050629 
	C410.672699,270.457184 427.992279,284.760712 445.464813,298.874878 
	C453.993683,305.764374 462.835754,312.265259 471.447754,319.054077 
	C472.284790,319.713837 472.936310,321.165131 472.937164,322.249573 
	C472.980988,377.573334 472.944946,432.897125 472.903137,488.220947 
	C472.903046,488.341522 472.692108,488.461975 472.384583,488.791565 
	C467.637329,488.791565 462.686249,488.791565 456.999359,488.791565 
	C456.999359,487.161041 456.999359,485.414795 456.999329,483.668518 
	C456.999176,459.005646 457.058899,434.342590 456.984863,409.679932 
	C456.873383,372.533875 427.425934,344.017456 390.338562,345.039642 
	C357.958527,345.932098 330.102234,373.610657 329.068268,406.003937 
	C328.882294,411.830750 329.015045,417.667755 329.000641,424.000061 
z"/>
<path fill="#B3DC7E" opacity="1.000000" stroke="none" 
	d="
M306.000000,112.998741 
	C359.125488,112.998741 411.751007,113.029648 464.376282,112.925774 
	C467.708130,112.919205 469.870331,113.821899 471.812897,116.579033 
	C476.602386,123.376991 481.708435,129.951935 486.973816,137.000168 
	C481.252563,144.651047 475.503174,152.339508 469.177765,160.798279 
	C465.480255,155.265503 462.088226,150.084274 458.579895,144.983047 
	C456.720581,142.279526 455.085266,138.090469 452.597076,137.437790 
	C447.921448,136.211304 442.690002,136.890717 437.714478,137.189774 
	C436.648071,137.253876 435.500275,138.943573 434.708466,140.102081 
	C430.223846,146.663391 425.836121,153.290924 421.014465,160.494965 
	C416.480164,153.737320 412.075287,147.561035 408.120850,141.108688 
	C406.255310,138.064682 404.093842,137.291443 400.622742,136.813583 
	C391.719635,135.587921 385.925873,138.582062 382.045319,146.731628 
	C379.801697,151.443451 376.316895,155.564285 373.005035,160.529251 
	C368.344727,153.541565 363.919678,147.167969 359.799896,140.602814 
	C358.111786,137.912689 356.126404,137.263077 353.021820,136.828384 
	C343.769043,135.532867 337.485352,138.609589 333.803802,147.281067 
	C332.870911,149.478317 331.096497,151.318298 329.505127,153.616516 
	C326.990967,139.291382 320.730621,131.774567 309.525238,129.487518 
	C307.269135,129.027054 304.894531,129.024643 302.574188,129.020538 
	C279.925537,128.980453 257.276794,128.985565 234.628067,128.969086 
	C234.309906,128.968857 233.991821,128.856201 233.336823,128.732285 
	C233.336823,123.739395 233.336823,118.680641 233.336823,112.998741 
	C257.343018,112.998741 281.421509,112.998741 306.000000,112.998741 
z"/>
<path fill="#E5E8EC" opacity="1.000000" stroke="none" 
	d="
M361.001099,408.003937 
	C361.001099,435.139252 361.001099,461.775055 361.001099,488.705688 
	C355.715881,488.705688 350.646454,488.705688 345.253021,488.705688 
	C345.175659,488.022797 345.011536,487.247864 345.011169,486.472900 
	C344.998352,460.648743 344.854034,434.823547 345.041718,409.000763 
	C345.243622,381.220703 367.803650,359.932709 395.482208,361.073608 
	C419.401062,362.059509 440.183594,382.018127 440.755920,405.979401 
	C441.411713,433.434937 440.907898,460.918152 440.907898,488.695068 
	C435.738281,488.695068 430.669403,488.695068 425.187866,488.695068 
	C425.187866,457.058075 425.187866,425.327118 425.187866,393.299561 
	C403.720886,393.299561 382.656067,393.299561 361.001099,393.299561 
	C361.001099,397.974792 361.001099,402.739624 361.001099,408.003937 
z"/>
<path fill="#F86C50" opacity="1.000000" stroke="none" 
	d="
M387.414276,219.221542 
	C391.673553,216.028946 395.412262,216.604095 399.081299,219.607819 
	C427.697876,243.035187 456.339874,266.431580 484.939941,289.879120 
	C489.534058,293.645569 490.264313,298.277740 487.123627,302.041321 
	C484.008942,305.773682 479.304260,305.917206 474.727936,302.182312 
	C449.044128,281.220825 423.312103,260.316437 397.825958,239.116745 
	C393.889984,235.842758 391.683594,236.231064 387.980988,239.302887 
	C362.724396,260.256409 337.305176,281.015503 311.771515,301.630554 
	C309.551788,303.422699 305.932373,304.841766 303.323273,304.383514 
	C301.014954,303.978088 297.773468,300.861328 297.545197,298.670563 
	C297.260284,295.936340 298.867676,292.037598 300.999084,290.182068 
	C311.674133,280.888763 322.789093,272.100891 333.746887,263.132233 
	C351.537231,248.571350 369.325531,234.008041 387.414276,219.221542 
z"/>
<path fill="#CF9E76" opacity="1.000000" stroke="none" 
	d="
M387.031799,488.999268 
	C383.563141,488.999268 380.588470,488.999268 377.308777,488.999268 
	C377.308777,462.309479 377.308777,435.918854 377.308777,409.263916 
	C387.659424,409.263916 397.934326,409.263916 408.604980,409.263916 
	C408.604980,435.515198 408.604980,461.907013 408.604980,488.999268 
	C401.710083,488.999268 394.617920,488.999268 387.031799,488.999268 
z"/>
<path fill="#A0D468" opacity="1.000000" stroke="none" 
	d="
M312.998627,154.302780 
	C312.999725,156.579590 312.999725,158.407959 312.999725,160.617798 
	C286.503784,160.617798 260.136749,160.617798 233.384247,160.617798 
	C233.384247,155.815674 233.384247,150.756897 233.384247,145.365448 
	C234.114792,145.263092 235.047363,145.019257 235.980148,145.018356 
	C258.446838,144.996689 280.913574,144.977814 303.380219,145.015335 
	C309.766327,145.026001 312.213501,147.360535 312.998627,154.302780 
z"/>
<path fill="#000000" opacity="1.000000" stroke="none" 
	d="
M56.999805,162.999176 
	C56.999878,141.345993 56.983051,120.192589 57.005501,99.039223 
	C57.022701,82.834518 66.917816,73.031067 83.230347,73.001480 
	C87.894066,72.993019 92.559692,72.917450 97.221199,73.019974 
	C110.329979,73.308296 120.837868,83.452744 120.930328,96.499046 
	C121.121559,123.480690 121.117043,150.465500 120.934006,177.447235 
	C120.845512,190.493073 110.360062,200.678406 97.261963,200.974258 
	C91.768219,201.098358 86.267128,201.096512 80.773254,200.975769 
	C67.454605,200.683075 57.264755,190.373505 57.016281,176.990295 
	C56.932816,172.494644 57.000957,167.996170 56.999805,162.999176 
z"/>
<path fill="#000000" opacity="1.000000" stroke="none" 
	d="
M153.000000,426.000000 
	C153.000000,436.470581 153.000000,446.441132 153.000000,456.704834 
	C121.033577,456.704834 89.314270,456.704834 57.297035,456.704834 
	C57.297035,430.368591 57.297035,403.980103 57.297035,377.295258 
	C88.966225,377.295258 120.685539,377.295258 153.000000,377.295258 
	C153.000000,393.325287 153.000000,409.412628 153.000000,426.000000 
M86.508377,393.000000 
	C82.081306,393.000000 77.654236,393.000000 73.310577,393.000000 
	C73.310577,409.332886 73.310577,425.050568 73.310577,440.692993 
	C94.668312,440.692993 115.714073,440.692993 136.689056,440.692993 
	C136.689056,424.666412 136.689056,408.948700 136.689056,393.000000 
	C120.087799,393.000000 103.796402,393.000000 86.508377,393.000000 
z"/>
<path fill="#000000" opacity="1.000000" stroke="none" 
	d="
M281.000000,423.000000 
	C281.000000,434.469940 281.000000,445.439850 281.000000,456.704163 
	C249.034958,456.704163 217.315628,456.704163 185.297699,456.704163 
	C185.297699,430.369995 185.297699,403.981476 185.297699,377.295959 
	C216.964813,377.295959 248.684113,377.295959 281.000000,377.295959 
	C281.000000,392.324036 281.000000,407.412018 281.000000,423.000000 
M201.000000,429.481750 
	C201.000000,433.246368 201.000000,437.010986 201.000000,440.699097 
	C222.655563,440.699097 243.701431,440.699097 264.694946,440.699097 
	C264.694946,424.678619 264.694946,408.960876 264.694946,393.301819 
	C243.342590,393.301819 222.296692,393.301819 201.000000,393.301819 
	C201.000000,405.230774 201.000000,416.859528 201.000000,429.481750 
z"/>
<path fill="#69D6F4" opacity="1.000000" stroke="none" 
	d="
M87.006691,393.000000 
	C103.796402,393.000000 120.087799,393.000000 136.689056,393.000000 
	C136.689056,408.948700 136.689056,424.666412 136.689056,440.692993 
	C115.714073,440.692993 94.668312,440.692993 73.310577,440.692993 
	C73.310577,425.050568 73.310577,409.332886 73.310577,393.000000 
	C77.654236,393.000000 82.081306,393.000000 87.006691,393.000000 
z"/>
<path fill="#69D6F4" opacity="1.000000" stroke="none" 
	d="
M201.000000,428.985016 
	C201.000000,416.859528 201.000000,405.230774 201.000000,393.301819 
	C222.296692,393.301819 243.342590,393.301819 264.694946,393.301819 
	C264.694946,408.960876 264.694946,424.678619 264.694946,440.699097 
	C243.701431,440.699097 222.655563,440.699097 201.000000,440.699097 
	C201.000000,437.010986 201.000000,433.246368 201.000000,428.985016 
z"/>
</svg>